<svg width="177" height="177" viewBox="0 0 177 177" fill="none" xmlns="http://www.w3.org/2000/svg">
<path d="M156.561 144.949C165.646 134.028 171.964 121.08 174.982 107.203C178 93.3252 177.628 78.9255 173.898 65.2218C170.168 51.5181 163.19 38.9136 153.554 28.4746C143.918 18.0355 131.907 10.069 118.537 5.24902C105.168 0.428998 90.8333 -1.10274 76.7462 0.78337C62.659 2.66948 49.2337 7.91797 37.606 16.0848C25.9782 24.2517 16.4902 35.0966 9.94434 47.7023C3.39854 60.308 -0.0124153 74.3035 3.39554e-05 88.5049C0.00481115 109.15 7.28591 129.133 20.5657 144.949L20.4392 145.057C20.882 145.588 21.3881 146.043 21.8435 146.567C22.4129 147.218 23.0265 147.831 23.6148 148.464C25.3861 150.385 27.2079 152.231 29.1184 153.963C29.7004 154.494 30.3013 154.987 30.8896 155.492C32.9139 157.237 34.9952 158.893 37.1523 160.435C37.4307 160.625 37.6837 160.871 37.962 161.067V160.991C52.7781 171.409 70.4528 177 88.5696 177C106.686 177 124.361 171.409 139.177 160.991V161.067C139.456 160.871 139.702 160.625 139.987 160.435C142.138 158.886 144.225 157.237 146.25 155.492C146.838 154.987 147.439 154.487 148.021 153.963C149.931 152.224 151.753 150.385 153.524 148.464C154.113 147.831 154.72 147.218 155.296 146.567C155.745 146.043 156.257 145.588 156.7 145.05L156.561 144.949ZM88.5633 37.9388C94.1935 37.9388 99.6972 39.607 104.379 42.7324C109.06 45.8578 112.709 50.3 114.863 55.4974C117.018 60.6947 117.581 66.4138 116.483 71.9312C115.385 77.4487 112.673 82.5169 108.692 86.4947C104.711 90.4726 99.6389 93.1816 94.1169 94.2791C88.5949 95.3766 82.8712 94.8133 77.6695 92.6605C72.4679 90.5077 68.022 86.862 64.894 82.1845C61.7661 77.507 60.0965 72.0078 60.0965 66.3822C60.0965 58.8386 63.0957 51.6039 68.4343 46.2697C73.7728 40.9355 81.0134 37.9388 88.5633 37.9388ZM38 144.949C38.1097 136.65 41.4853 128.727 47.3963 122.896C53.3073 117.064 61.2786 113.792 69.5854 113.788H107.541C115.848 113.792 123.819 117.064 129.73 122.896C135.641 128.727 139.017 136.65 139.127 144.949C125.253 157.441 107.239 164.354 88.5633 164.354C69.8875 164.354 51.8738 157.441 38 144.949Z" fill="#E7E7E8"/>
</svg>
